<!DOCTYPE svg PUBLIC "-//W3C//DTD SVG 1.1//EN" "http://www.w3.org/Graphics/SVG/1.1/DTD/svg11.dtd">
<!-- Uploaded to: SVG Repo, www.svgrepo.com, Transformed by: SVG Repo Mixer Tools -->
<svg fill="#d1d1d1" height="800px" width="800px" version="1.1" id="Layer_1" xmlns="http://www.w3.org/2000/svg" xmlns:xlink="http://www.w3.org/1999/xlink" viewBox="0 0 511.996 511.996" xml:space="preserve" stroke="#d1d1d1">
<g id="SVGRepo_bgCarrier" stroke-width="0"/>
<g id="SVGRepo_tracerCarrier" stroke-linecap="round" stroke-linejoin="round"/>
<g id="SVGRepo_iconCarrier"> <g> <g> <path d="M255.997,0C147.993,0,60.125,87.868,60.125,195.873c0,39.543,12.368,77.906,36.72,114.058 c0.415,0.723,0.862,1.435,1.375,2.117l143.889,191.711c0.474,0.638,0.993,1.247,1.547,1.835c0.174,0.185,0.358,0.353,0.537,0.531 c0.338,0.333,0.683,0.66,1.049,0.972c0.263,0.227,0.535,0.438,0.807,0.649c0.164,0.126,0.314,0.266,0.483,0.388 c0.187,0.136,0.381,0.251,0.571,0.38c0.195,0.132,0.39,0.266,0.589,0.391c0.569,0.356,1.148,0.685,1.739,0.979 c0.107,0.053,0.217,0.096,0.324,0.147c0.552,0.262,1.113,0.495,1.68,0.704c0.134,0.049,0.267,0.099,0.402,0.145 c1.35,0.466,2.731,0.78,4.125,0.951c0.134,0.016,0.269,0.033,0.404,0.046c0.692,0.071,1.387,0.119,2.081,0.119 c0.005,0,0.011-0.001,0.016-0.001s0.011,0.001,0.016,0.001c0.707,0,1.414-0.05,2.121-0.125c0.141-0.015,0.281-0.033,0.421-0.05 c1.421-0.179,2.83-0.506,4.205-0.991c0.134-0.048,0.266-0.099,0.4-0.149c0.566-0.213,1.124-0.451,1.675-0.717 c0.126-0.061,0.255-0.114,0.38-0.178c0.603-0.307,1.194-0.649,1.774-1.021c0.193-0.124,0.379-0.261,0.569-0.391 c0.22-0.152,0.445-0.293,0.661-0.455c0.156-0.118,0.294-0.251,0.447-0.372c0.265-0.21,0.525-0.425,0.78-0.65 c0.371-0.326,0.721-0.665,1.061-1.013c0.175-0.178,0.354-0.349,0.524-0.535c0.554-0.607,1.072-1.235,1.542-1.892l135.05-186.694 c0.046-0.062,0.1-0.115,0.147-0.179c27.626-38.344,41.635-78.958,41.635-120.716C451.871,87.868,364.002,0,255.997,0z M331.839,169.97l-34.774,33.897c-0.779,0.759-1.135,1.853-0.95,2.926l8.21,47.863c0.463,2.701-2.371,4.76-4.796,3.484 l-42.984-22.597c-0.962-0.506-2.113-0.506-3.075,0l-42.984,22.597c-2.425,1.274-5.259-0.784-4.796-3.484l8.21-47.863 c0.183-1.072-0.171-2.166-0.95-2.926l-34.774-33.897c-1.961-1.912-0.88-5.244,1.832-5.638l48.057-6.983 c1.076-0.156,2.007-0.833,2.489-1.808l21.491-43.547c1.212-2.457,4.716-2.457,5.928,0l21.491,43.547 c0.482,0.976,1.413,1.652,2.489,1.808l48.057,6.983C332.718,164.726,333.802,168.058,331.839,169.97z"/> </g> </g> </g>
</svg>