<?xml version="1.0" encoding="UTF-8"?>
<svg width="737px" height="673px" viewBox="0 0 737 673" version="1.1" xmlns="http://www.w3.org/2000/svg" xmlns:xlink="http://www.w3.org/1999/xlink">
    <title>увы</title>
    <g id="Page-1" stroke="none" stroke-width="1" fill="none" fill-rule="evenodd">
        <g id="увы" fill="#D1D1D1">
            <path d="M734.947903,80.1712481 C745.54457,28.5122481 694.80457,-14.4174186 645.61457,4.58824806 L42.6412363,237.555248 C-12.2915304,258.779248 -14.739197,335.594915 38.7305696,360.271581 L170.041236,420.878248 L232.50757,639.508248 C235.752236,650.864915 244.763903,659.658248 256.196903,662.621581 C267.629903,665.581581 279.777236,662.274915 288.12857,653.921581 L384.351236,557.698248 L519.141236,658.791581 C558.267903,688.134915 614.621236,666.761581 624.447903,618.851581 L734.947903,80.1712481 Z M66.667903,299.741581 L669.641236,66.7749147 L559.141236,605.458248 L401.22457,487.018248 C387.95457,477.064915 369.38457,478.384915 357.65457,490.114915 L316.441236,531.328248 L328.82457,463.224915 L571.461236,220.589248 C583.271236,208.780915 584.517903,190.056915 574.381236,176.785915 C564.24457,163.514581 545.85457,159.792248 531.35457,168.077581 L196.265903,359.554915 L66.667903,299.741581 Z M237.122903,412.991581 L257.33557,483.738248 L265.095903,441.054915 C266.308903,434.384915 269.527236,428.241581 274.32157,423.448248 L348.317903,349.454915 L237.122903,412.991581 Z" id="Shape"></path>
        </g>
    </g>
</svg>