<?xml version="1.0" encoding="UTF-8"?>
<svg width="24px" height="24px" viewBox="0 0 24 24" version="1.1" xmlns="http://www.w3.org/2000/svg" xmlns:xlink="http://www.w3.org/1999/xlink">
    <title>telegram-alt-svgrepo-com</title>
    <g id="Page-1" stroke="none" stroke-width="1" fill="none" fill-rule="evenodd">
        <g id="telegram-alt-svgrepo-com">
            <path d="M19.2,4.4 L2.9,10.7 C1.8,11.1 1.8,11.8 2.7,12 L6.8,13.3 L8.4,18.1 C8.6,18.6 8.5,18.8 9,18.8 C9.4,18.8 9.6,18.6 9.8,18.4 C9.9,18.3 10.8,17.4 11.8,16.4 L16,19.5 C16.8,19.9 17.3,19.7 17.5,18.8 L20.3,5.7 C20.6,4.6 19.9,4 19.2,4.4 Z M17.1,7.4 L9.3,14.5 L9,17.8 L7.4,13 L16.6,7.2 C17,6.9 17.4,7.1 17.1,7.4 Z" id="Shape" fill="#D1D1D1" fill-rule="nonzero"></path>
            <rect id="Rectangle" x="0" y="0" width="24" height="24"></rect>
        </g>
    </g>
</svg>