<?xml version="1.0" encoding="UTF-8"?>
<svg width="46px" height="46px" viewBox="0 0 46 46" version="1.1" xmlns="http://www.w3.org/2000/svg" xmlns:xlink="http://www.w3.org/1999/xlink">
    <title>icons8-телеграм</title>
    <g id="Page-1" stroke="none" stroke-width="1" fill="none" fill-rule="evenodd">
        <g id="icons8-телеграм" fill="#D1D1D1" fill-rule="nonzero">
            <path d="M23,0 C10.309288,0 0,10.309297 0,23 C0,35.690703 10.309288,46 23,46 C35.690712,46 46,35.690703 46,23 C46,10.309297 35.690712,0 23,0 Z M23,2 C34.609833,2 44,11.390175 44,23 C44,34.609825 34.609833,44 23,44 C11.390167,44 2,34.609825 2,23 C2,11.390175 11.390167,2 23,2 Z M32.087891,12.035156 C31.403891,12.035156 30.635328,12.193578 29.736328,12.517578 C28.340328,13.020578 11.920734,19.992156 10.052734,20.785156 C8.984734,21.239156 6.9960938,22.083656 6.9960938,24.097656 C6.9960938,25.432656 7.7783594,26.3875 9.318359,26.9375 C10.146359,27.2325 12.112906,27.828578 13.253906,28.142578 C13.737906,28.275578 14.25225,28.34375 14.78125,28.34375 C15.81625,28.34375 16.857828,28.085859 17.673828,27.630859 C17.666828,27.798859 17.671406,27.968672 17.691406,28.138672 C17.814406,29.188672 18.461875,30.17625 19.421875,30.78125 C20.049875,31.17725 25.179312,34.614156 25.945312,35.160156 C27.021313,35.929156 28.210813,36.335938 29.382812,36.335938 C31.622813,36.335938 32.374328,34.023109 32.736328,32.912109 C33.261328,31.299109 35.227219,18.182141 35.449219,15.869141 C35.600219,14.284141 34.939641,12.978953 33.681641,12.376953 C33.210641,12.149953 32.672891,12.035156 32.087891,12.035156 Z M32.087891,14.035156 C32.362891,14.035156 32.608406,14.080641 32.816406,14.181641 C33.289406,14.408641 33.530031,14.914688 33.457031,15.679688 C33.215031,18.202687 31.253938,31.008969 30.835938,32.292969 C30.477938,33.390969 30.100813,34.335938 29.382812,34.335938 C28.664813,34.335938 27.880422,34.08425 27.107422,33.53125 C26.334422,32.97925 21.201281,29.536891 20.488281,29.087891 C19.863281,28.693891 19.201813,27.711719 20.132812,26.761719 C20.899812,25.979719 26.717844,20.332938 27.214844,19.835938 C27.584844,19.464938 27.411828,19.017578 27.048828,19.017578 C26.923828,19.017578 26.774141,19.070266 26.619141,19.197266 C26.011141,19.694266 17.534781,25.366266 16.800781,25.822266 C16.314781,26.124266 15.56225,26.341797 14.78125,26.341797 C14.44825,26.341797 14.111109,26.301891 13.787109,26.212891 C12.659109,25.901891 10.750187,25.322734 9.992188,25.052734 C9.263188,24.792734 8.998047,24.543656 8.998047,24.097656 C8.998047,23.463656 9.892938,23.026 10.835938,22.625 C11.831938,22.202 29.066062,14.883437 30.414062,14.398438 C31.038062,14.172438 31.608891,14.035156 32.087891,14.035156 Z" id="Shape"></path>
        </g>
    </g>
</svg>